<svg xmlns="http://www.w3.org/2000/svg" viewBox="0 0 24 24" width="24" height="24" class="icon-with-bg">
  <circle class="icon-bg" cx="12" cy="12" r="11" fill="var(--icon-bg, currentColor)"/>
  <g class="icon-glyph" fill="var(--icon-fg, #ffffff)" transform="translate(3.6, 3.6) scale(0.7)">
    <g><path d="M12 3C8.7 3 6 5.7 6 9v6c0 3.3 2.7 6 6 6s6-2.7 6-6V9c0-3.3-2.7-6-6-6zm4 12c0 2.2-1.8 4-4 4s-4-1.8-4-4V9c0-2.2 1.8-4 4-4s4 1.8 4 4v6z"/><rect x="15" y="8" width="3" height="6" rx="1"/></g>
  </g>
</svg>